<svg id="visual" viewBox="0 0 900 300" width="900" height="300" xmlns="http://www.w3.org/2000/svg" xmlns:xlink="http://www.w3.org/1999/xlink" version="1.1"><rect x="0" y="0" width="900" height="300" fill="#202731"></rect><path d="M0 112L21.5 109.3C43 106.7 86 101.3 128.8 95.8C171.7 90.3 214.3 84.7 257.2 87.7C300 90.7 343 102.3 385.8 105C428.7 107.7 471.3 101.3 514.2 97.5C557 93.7 600 92.3 642.8 96.8C685.7 101.3 728.3 111.7 771.2 113.2C814 114.7 857 107.3 878.5 103.7L900 100L900 0L878.5 0C857 0 814 0 771.2 0C728.3 0 685.7 0 642.8 0C600 0 557 0 514.2 0C471.3 0 428.7 0 385.8 0C343 0 300 0 257.2 0C214.3 0 171.7 0 128.8 0C86 0 43 0 21.5 0L0 0Z" fill="#fa7268"></path><path d="M0 101L21.5 96C43 91 86 81 128.8 75.5C171.7 70 214.3 69 257.2 73.3C300 77.7 343 87.3 385.8 87.2C428.7 87 471.3 77 514.2 75.3C557 73.7 600 80.3 642.8 82.7C685.7 85 728.3 83 771.2 79.3C814 75.7 857 70.3 878.5 67.7L900 65L900 0L878.5 0C857 0 814 0 771.2 0C728.3 0 685.7 0 642.8 0C600 0 557 0 514.2 0C471.3 0 428.7 0 385.8 0C343 0 300 0 257.2 0C214.3 0 171.7 0 128.8 0C86 0 43 0 21.5 0L0 0Z" fill="#ef5f67"></path><path d="M0 53L21.5 52C43 51 86 49 128.8 51C171.7 53 214.3 59 257.2 60.5C300 62 343 59 385.8 59.3C428.7 59.7 471.3 63.3 514.2 67.2C557 71 600 75 642.8 75.2C685.7 75.3 728.3 71.7 771.2 70.2C814 68.7 857 69.3 878.5 69.7L900 70L900 0L878.5 0C857 0 814 0 771.2 0C728.3 0 685.7 0 642.8 0C600 0 557 0 514.2 0C471.3 0 428.7 0 385.8 0C343 0 300 0 257.2 0C214.3 0 171.7 0 128.8 0C86 0 43 0 21.5 0L0 0Z" fill="#e34c67"></path><path d="M0 37L21.5 37.7C43 38.3 86 39.7 128.8 40.5C171.7 41.3 214.3 41.7 257.2 42C300 42.3 343 42.7 385.8 44C428.7 45.3 471.3 47.7 514.2 46.8C557 46 600 42 642.8 38.7C685.7 35.3 728.3 32.7 771.2 34.3C814 36 857 42 878.5 45L900 48L900 0L878.5 0C857 0 814 0 771.2 0C728.3 0 685.7 0 642.8 0C600 0 557 0 514.2 0C471.3 0 428.7 0 385.8 0C343 0 300 0 257.2 0C214.3 0 171.7 0 128.8 0C86 0 43 0 21.5 0L0 0Z" fill="#d53867"></path><path d="M0 16L21.5 18.2C43 20.3 86 24.7 128.8 27.2C171.7 29.7 214.3 30.3 257.2 29.3C300 28.3 343 25.7 385.8 26.2C428.7 26.7 471.3 30.3 514.2 29.3C557 28.3 600 22.7 642.8 22.5C685.7 22.3 728.3 27.7 771.2 27.8C814 28 857 23 878.5 20.5L900 18L900 0L878.5 0C857 0 814 0 771.2 0C728.3 0 685.7 0 642.8 0C600 0 557 0 514.2 0C471.3 0 428.7 0 385.8 0C343 0 300 0 257.2 0C214.3 0 171.7 0 128.8 0C86 0 43 0 21.5 0L0 0Z" fill="#c62368"></path></svg>