<svg id="visual" viewBox="0 0 900 300" width="900" height="300" xmlns="http://www.w3.org/2000/svg" xmlns:xlink="http://www.w3.org/1999/xlink" version="1.1"><rect x="0" y="0" width="900" height="300" fill="#202731"></rect><path d="M0 91L11.5 93.8C23 96.7 46 102.3 69 107.3C92 112.3 115 116.7 138.2 112.8C161.3 109 184.7 97 207.8 96.8C231 96.7 254 108.3 277 110.3C300 112.3 323 104.7 346 98.2C369 91.7 392 86.3 415.2 85C438.3 83.7 461.7 86.3 484.8 92C508 97.7 531 106.3 554 111.7C577 117 600 119 623 120.3C646 121.7 669 122.3 692.2 121.8C715.3 121.3 738.7 119.7 761.8 118.2C785 116.7 808 115.3 831 112.7C854 110 877 106 888.5 104L900 102L900 0L888.5 0C877 0 854 0 831 0C808 0 785 0 761.8 0C738.7 0 715.3 0 692.2 0C669 0 646 0 623 0C600 0 577 0 554 0C531 0 508 0 484.8 0C461.7 0 438.3 0 415.2 0C392 0 369 0 346 0C323 0 300 0 277 0C254 0 231 0 207.8 0C184.7 0 161.3 0 138.2 0C115 0 92 0 69 0C46 0 23 0 11.5 0L0 0Z" fill="#ff0066"></path><path d="M0 81L11.5 84.5C23 88 46 95 69 95C92 95 115 88 138.2 87.2C161.3 86.3 184.7 91.7 207.8 91.7C231 91.7 254 86.3 277 82.2C300 78 323 75 346 73.8C369 72.7 392 73.3 415.2 73.5C438.3 73.7 461.7 73.3 484.8 74.2C508 75 531 77 554 78.3C577 79.7 600 80.3 623 82.3C646 84.3 669 87.7 692.2 88.3C715.3 89 738.7 87 761.8 82.8C785 78.7 808 72.3 831 72.5C854 72.7 877 79.3 888.5 82.7L900 86L900 0L888.5 0C877 0 854 0 831 0C808 0 785 0 761.8 0C738.7 0 715.3 0 692.2 0C669 0 646 0 623 0C600 0 577 0 554 0C531 0 508 0 484.8 0C461.7 0 438.3 0 415.2 0C392 0 369 0 346 0C323 0 300 0 277 0C254 0 231 0 207.8 0C184.7 0 161.3 0 138.2 0C115 0 92 0 69 0C46 0 23 0 11.5 0L0 0Z" fill="#fa175a"></path><path d="M0 84L11.5 83C23 82 46 80 69 75.7C92 71.3 115 64.7 138.2 61C161.3 57.3 184.7 56.7 207.8 56.2C231 55.7 254 55.3 277 58.7C300 62 323 69 346 74.3C369 79.7 392 83.3 415.2 81C438.3 78.7 461.7 70.3 484.8 68.2C508 66 531 70 554 69.8C577 69.7 600 65.3 623 65.8C646 66.3 669 71.7 692.2 70.5C715.3 69.3 738.7 61.7 761.8 57.5C785 53.3 808 52.7 831 57.2C854 61.7 877 71.3 888.5 76.2L900 81L900 0L888.5 0C877 0 854 0 831 0C808 0 785 0 761.8 0C738.7 0 715.3 0 692.2 0C669 0 646 0 623 0C600 0 577 0 554 0C531 0 508 0 484.8 0C461.7 0 438.3 0 415.2 0C392 0 369 0 346 0C323 0 300 0 277 0C254 0 231 0 207.8 0C184.7 0 161.3 0 138.2 0C115 0 92 0 69 0C46 0 23 0 11.5 0L0 0Z" fill="#f3254f"></path><path d="M0 53L11.5 55.3C23 57.7 46 62.3 69 64.5C92 66.7 115 66.3 138.2 63C161.3 59.7 184.7 53.3 207.8 51.5C231 49.7 254 52.3 277 51.5C300 50.7 323 46.3 346 44.7C369 43 392 44 415.2 46C438.3 48 461.7 51 484.8 54.7C508 58.3 531 62.7 554 65C577 67.3 600 67.7 623 65.2C646 62.7 669 57.3 692.2 53.3C715.3 49.3 738.7 46.7 761.8 44.7C785 42.7 808 41.3 831 42.5C854 43.7 877 47.3 888.5 49.2L900 51L900 0L888.5 0C877 0 854 0 831 0C808 0 785 0 761.8 0C738.7 0 715.3 0 692.2 0C669 0 646 0 623 0C600 0 577 0 554 0C531 0 508 0 484.8 0C461.7 0 438.3 0 415.2 0C392 0 369 0 346 0C323 0 300 0 277 0C254 0 231 0 207.8 0C184.7 0 161.3 0 138.2 0C115 0 92 0 69 0C46 0 23 0 11.5 0L0 0Z" fill="#ec2f45"></path><path d="M0 49L11.5 46.7C23 44.3 46 39.7 69 38.8C92 38 115 41 138.2 41.7C161.3 42.3 184.7 40.7 207.8 39.3C231 38 254 37 277 36.7C300 36.3 323 36.7 346 37.8C369 39 392 41 415.2 40.5C438.3 40 461.7 37 484.8 34.5C508 32 531 30 554 29.5C577 29 600 30 623 32.8C646 35.7 669 40.3 692.2 41.2C715.3 42 738.7 39 761.8 36.2C785 33.3 808 30.7 831 31.5C854 32.3 877 36.7 888.5 38.8L900 41L900 0L888.5 0C877 0 854 0 831 0C808 0 785 0 761.8 0C738.7 0 715.3 0 692.2 0C669 0 646 0 623 0C600 0 577 0 554 0C531 0 508 0 484.8 0C461.7 0 438.3 0 415.2 0C392 0 369 0 346 0C323 0 300 0 277 0C254 0 231 0 207.8 0C184.7 0 161.3 0 138.2 0C115 0 92 0 69 0C46 0 23 0 11.5 0L0 0Z" fill="#e5383b"></path><path d="M0 23L11.5 22.2C23 21.3 46 19.7 69 20C92 20.3 115 22.7 138.2 22.2C161.3 21.7 184.7 18.3 207.8 17.2C231 16 254 17 277 18.2C300 19.3 323 20.7 346 20.2C369 19.7 392 17.3 415.2 18.3C438.3 19.3 461.7 23.7 484.8 24.3C508 25 531 22 554 21C577 20 600 21 623 19.7C646 18.3 669 14.7 692.2 14C715.3 13.3 738.7 15.7 761.8 17.2C785 18.7 808 19.3 831 19.7C854 20 877 20 888.5 20L900 20L900 0L888.5 0C877 0 854 0 831 0C808 0 785 0 761.8 0C738.7 0 715.3 0 692.2 0C669 0 646 0 623 0C600 0 577 0 554 0C531 0 508 0 484.8 0C461.7 0 438.3 0 415.2 0C392 0 369 0 346 0C323 0 300 0 277 0C254 0 231 0 207.8 0C184.7 0 161.3 0 138.2 0C115 0 92 0 69 0C46 0 23 0 11.5 0L0 0Z" fill="#dd3f31"></path></svg>